HIERARCHY
ROOT hip
{
	OFFSET 0.000000 0.000000 0.000000
	CHANNELS 6 Xposition Yposition Zposition Zrotation Yrotation Xrotation 
	JOINT lhipjoint
	{
		OFFSET 0.000000 0.000000 0.000000
		CHANNELS 3 Zrotation Yrotation Xrotation
		JOINT lfemur
		{
			OFFSET 1.363060 -1.794630 0.839290
			CHANNELS 3 Zrotation Yrotation Xrotation
			JOINT ltibia
			{
				OFFSET 2.448110 -6.726130 0.000000
				CHANNELS 3 Zrotation Yrotation Xrotation
				JOINT lfoot
				{
					OFFSET 2.562200 -7.039590 0.000000
					CHANNELS 3 Zrotation Yrotation Xrotation
					JOINT ltoes
					{
						OFFSET 0.157640 -0.433110 2.322550
						CHANNELS 3 Zrotation Yrotation Xrotation
						End Site
						{
							OFFSET 0.000000 0.000000 0.000000
						}
					}
				}
			}
		}
	}
	JOINT rhipjoint
	{
		OFFSET 0.000000 0.000000 0.000000
		CHANNELS 3 Zrotation Yrotation Xrotation
		JOINT rfemur
		{
			OFFSET -1.305520 -1.794630 0.839290
			CHANNELS 3 Zrotation Yrotation Xrotation
			JOINT rtibia
			{
				OFFSET -2.542530 -6.985550 0.000000
				CHANNELS 3 Zrotation Yrotation Xrotation
				JOINT rfoot
				{
					OFFSET -2.568260 -7.056230 0.000000
					CHANNELS 3 Zrotation Yrotation Xrotation
					JOINT rtoes
					{
						OFFSET -0.164730 -0.452590 2.363150
						CHANNELS 3 Zrotation Yrotation Xrotation
						End Site
						{
							OFFSET 0.000000 0.000000 0.000000
						}
					}
				}
			}
		}
	}
	JOINT lowerback
	{
		OFFSET 0.000000 0.000000 0.000000
		CHANNELS 3 Zrotation Yrotation Xrotation
		JOINT upperback
		{
			OFFSET 0.028270 2.035590 -0.193380
			CHANNELS 3 Zrotation Yrotation Xrotation
			JOINT thorax
			{
				OFFSET 0.056720 2.048850 -0.042750
				CHANNELS 3 Zrotation Yrotation Xrotation
				JOINT lowerneck
				{
					OFFSET 0.000000 0.000000 0.000000
					CHANNELS 3 Zrotation Yrotation Xrotation
					JOINT upperneck
					{
						OFFSET -0.054170 1.746240 0.172020
						CHANNELS 3 Zrotation Yrotation Xrotation
						JOINT head
						{
							OFFSET 0.104070 1.761360 -0.123970
							CHANNELS 3 Zrotation Yrotation Xrotation
							End Site
							{
								OFFSET 0.000000 0.000000 0.000000
							}
						}
					}
				}
				JOINT lclavicle
				{
					OFFSET 0.000000 0.000000 0.000000
					CHANNELS 3 Zrotation Yrotation Xrotation
					JOINT lhumerus
					{
						OFFSET 3.362410 1.200890 -0.311210
						CHANNELS 3 Zrotation Yrotation Xrotation
						JOINT lradius
						{
							OFFSET 4.983000 -0.000000 -0.000000
							CHANNELS 3 Zrotation Yrotation Xrotation
							JOINT lwrist
							{
								OFFSET 3.483560 -0.000000 -0.000000
								CHANNELS 3 Zrotation Yrotation Xrotation
								JOINT lhand
								{
									OFFSET 0.000000 0.000000 0.000000
									CHANNELS 3 Zrotation Yrotation Xrotation
									JOINT lfingers
									{
										OFFSET 0.715260 -0.000000 -0.000000
										CHANNELS 3 Zrotation Yrotation Xrotation
										End Site
										{
											OFFSET 0.000000 0.000000 0.000000
										}
									}
								}
								JOINT lthumb
								{
									OFFSET 0.000000 0.000000 0.000000
									CHANNELS 3 Zrotation Yrotation Xrotation
									End Site
									{
										OFFSET 0.000000 0.000000 0.000000
									}
								}
							}
						}
					}
				}
				JOINT rclavicle
				{
					OFFSET 0.000000 0.000000 0.000000
					CHANNELS 3 Zrotation Yrotation Xrotation
					JOINT rhumerus
					{
						OFFSET -3.136600 1.374050 -0.404650
						CHANNELS 3 Zrotation Yrotation Xrotation
						JOINT rradius
						{
							OFFSET -5.241900 -0.000000 -0.000000
							CHANNELS 3 Zrotation Yrotation Xrotation
							JOINT rwrist
							{
								OFFSET -3.444170 -0.000000 -0.000000
								CHANNELS 3 Zrotation Yrotation Xrotation
								JOINT rhand
								{
									OFFSET 0.000000 0.000000 0.000000
									CHANNELS 3 Zrotation Yrotation Xrotation
									JOINT rfingers
									{
										OFFSET -0.622530 -0.000000 -0.000000
										CHANNELS 3 Zrotation Yrotation Xrotation
										End Site
										{
											OFFSET 0.000000 0.000000 0.000000
										}
									}
								}
								JOINT rthumb
								{
									OFFSET 0.000000 0.000000 0.000000
									CHANNELS 3 Zrotation Yrotation Xrotation
									End Site
									{
										OFFSET 0.000000 0.000000 0.000000
									}
								}
							}
						}
					}
				}
			}
		}
	}
}
MOTION
Frames: 5
Frame Time: 0.008333
1.565916 17.126985 2.995673 -177.381068 -4.666283 -175.296871 -4.845447 -3.056284 -0.469969 -11.732471 3.894337 -20.249320 4.435605 11.693900 34.316900 0.529870 -9.878121 -12.239524 0.088500 -1.919000 -5.281800 2.166750 3.445283 -2.307353 20.665471 -21.541122 -20.414483 -4.042996 -11.424083 30.142737 2.544503 31.391789 4.442029 -0.405700 4.089100 -11.327500 11.508585 2.178682 -5.605176 2.039276 1.462882 -5.118241 -3.975472 0.564624 7.370231 -3.092835 -2.353315 -9.239338 -0.555119 -4.691917 33.130436 -1.704300 -2.900200 9.054300 -4.565859 -3.380885 2.969327 -70.295341 -1.956292 42.007955 16.097031 -29.608903 -4.697496 0.944295 1.249149 31.567700 28.349251 -17.183235 -9.898600 -7.125000 0.000000 0.000000 -0.004400 8.659700 0.003700 6.547214 4.043395 3.362621 69.145195 2.241706 -18.059044 -0.171141 13.540702 -0.801959 -0.018871 -0.368636 38.712357 -7.510702 7.037006 -0.992400 7.125000 0.000000 0.000000 13.868100 -22.631500 7.684900 
1.558660 17.133793 3.000958 -177.373535 -5.043812 -175.314904 -4.835912 -3.024309 -0.483966 -11.700278 3.080182 -19.998876 4.440172 11.678939 34.281841 0.529735 -9.669927 -12.173834 0.110400 -2.142400 -5.899300 2.153921 3.410493 -2.305173 20.755008 -20.871904 -20.138577 -4.054812 -11.390076 30.084173 2.257238 30.565481 2.792392 -0.505700 4.558600 -12.653700 11.219890 2.129136 -5.408331 2.038588 1.461286 -5.093999 -3.875675 0.560461 7.325228 -3.252536 -2.433084 -9.078075 -0.515975 -4.773497 32.942848 -1.655800 -2.944400 8.945400 -4.582758 -3.407999 3.013061 -69.588753 -2.391060 43.111518 17.140732 -30.617769 -5.062508 0.921235 1.291177 30.826190 28.491022 -16.761720 -9.767600 -7.125000 0.000000 0.000000 0.148100 9.069000 -0.122900 6.469028 4.048596 3.304570 69.611649 2.073416 -23.442737 0.315604 11.745891 -0.711744 -0.036071 -0.301130 40.971405 -8.117570 6.742071 -1.015900 7.125000 0.000000 0.000000 13.494800 -22.956100 7.362700 
1.550419 17.142302 3.006153 -177.393691 -5.404092 -175.368628 -4.822856 -2.998147 -0.500493 -11.693222 2.245542 -19.687539 4.443122 11.663815 34.240284 0.519446 -9.513414 -11.985019 0.087100 -1.904100 -5.240700 2.145061 3.385348 -2.306962 20.805939 -20.208057 -19.805324 -4.061712 -11.361681 30.023605 1.938441 29.625009 0.958256 -0.647800 5.148800 -14.333500 10.954915 2.091348 -5.153158 2.022810 1.483302 -5.065813 -3.842997 0.570838 7.281072 -3.451346 -2.506179 -9.010873 -0.411141 -4.863024 32.806344 -1.574900 -2.993800 8.886600 -4.615669 -3.446534 3.054840 -68.788796 -2.826095 44.145084 18.222267 -31.644077 -5.466386 0.895550 1.333184 30.174812 28.817183 -16.355772 -9.716900 -7.125000 0.000000 0.000000 0.420900 9.426100 -0.346300 6.386236 4.052785 3.248571 70.118299 1.818575 -28.355007 0.558865 10.262759 -0.650894 -0.056181 -0.246188 42.837256 -8.777412 6.426198 -1.038600 7.125000 0.000000 0.000000 13.080000 -23.285500 7.022400 
1.541640 17.149469 3.010005 -177.414448 -5.754885 -175.419399 -4.808184 -2.975403 -0.520417 -11.695343 1.422412 -19.353163 4.440262 11.643485 34.173377 0.502001 -9.398544 -11.707291 0.043000 -1.338900 -3.681900 2.138594 3.358095 -2.307666 20.857777 -19.530607 -19.490166 -4.075924 -11.342672 29.995068 1.603574 28.547395 -0.812272 -0.789900 5.673400 -15.839600 10.710926 2.088658 -4.934405 1.999669 1.540603 -5.032133 -3.838162 0.601506 7.280095 -3.611947 -2.598480 -8.949766 -0.322417 -4.972325 32.664337 -1.509300 -3.047500 8.820000 -4.655048 -3.483699 3.095689 -67.907221 -3.264636 45.191975 19.340165 -32.693807 -5.910080 0.867632 1.374407 29.514957 29.319301 -16.028523 -9.772100 -7.125000 0.000000 0.000000 0.799800 9.663300 -0.654300 6.313376 4.061804 3.203774 70.670119 1.406701 -32.421081 0.580616 9.213766 -0.619637 -0.078083 -0.207887 43.883413 -9.448753 6.172062 -1.069000 7.125000 0.000000 0.000000 12.643400 -23.537600 6.700900 
1.533041 17.154127 3.012603 -177.434065 -6.126867 -175.510005 -4.790917 -2.963119 -0.542502 -11.714144 0.737746 -18.999276 4.427334 11.617638 34.069462 0.483010 -9.328498 -11.415707 0.021200 -0.941000 -2.586600 2.133049 3.336761 -2.312465 20.903528 -18.837297 -19.124480 -4.093266 -11.335585 29.991140 1.255884 27.307721 -2.509356 -0.929600 6.142100 -17.197400 10.475627 2.087521 -4.732575 1.973608 1.592860 -4.992138 -3.856498 0.633502 7.313101 -3.789993 -2.691680 -8.845395 -0.186658 -5.105834 32.525839 -1.423400 -3.111500 8.736200 -4.699098 -3.530511 3.139375 -66.978950 -3.682206 46.100979 20.465155 -33.747984 -6.393449 0.842557 1.412458 28.922567 30.065876 -15.896754 -10.024300 -7.125000 0.000000 0.000000 1.312400 9.632600 -1.074500 6.244604 4.071602 3.174632 71.292996 0.789092 -35.118807 0.485453 8.654164 -0.613942 -0.105210 -0.192308 43.682630 -10.077160 5.987975 -1.106100 7.125000 0.000000 0.000000 12.222800 -23.699400 6.420900 
